<svg xmlns="http://www.w3.org/2000/svg" viewBox="0 0 741.79 581.87"><defs><style>.cls-1{fill:#a0a0a1;}.cls-2{fill:#1c2044;}.cls-3{fill:#cd262e;}.cls-4{fill:#002856;}</style></defs><g id="Capa_2" data-name="Capa 2"><g id="Capa_1-2" data-name="Capa 1"><path class="cls-1" d="M552,301.53a16.18,16.18,0,0,1-10.16-1.64L449,251a20.23,20.23,0,0,0-8.64-2.11,19.71,19.71,0,0,0-8.29,2.07l-16.93,9.11a17.23,17.23,0,0,1-7.2,1.84,15.73,15.73,0,0,1-8.87-3l-51.78-37.47A18,18,0,0,0,337,218.2h-.16c-5.79,0-10.67,3.71-10.71,3.75l-34.61,26.24a14.7,14.7,0,0,1-7.28,2.89,16.81,16.81,0,0,1-7.39-1l-15.68-6.49a18,18,0,0,0-9.38-1.29,19.44,19.44,0,0,0-8.49,3.55l-42.43,32.5a16.15,16.15,0,0,1-6.41,2.78,14.85,14.85,0,0,1-7.9-.71L134,262.78a17.55,17.55,0,0,0-6.53-.94,19.53,19.53,0,0,0-6.57,1.48L0,317.21v-7.5l118-52.6a25.64,25.64,0,0,1,9.11-2.11,23.61,23.61,0,0,1,9.19,1.36L188.92,274a9.2,9.2,0,0,0,4.38.39,8.7,8.7,0,0,0,3.4-1.52l42.39-32.46c.23-.16,5.55-4.22,11.92-4.93a24.66,24.66,0,0,1,13,1.88l15.37,6.37a10.9,10.9,0,0,0,3.32.55,5.1,5.1,0,0,0,.78,0,8.71,8.71,0,0,0,3.8-1.49l34.64-26.23a25.86,25.86,0,0,1,15.17-5.21,25.07,25.07,0,0,1,14.4,4.7l51.65,37.38a9,9,0,0,0,4.81,1.64,9.51,9.51,0,0,0,3.95-1l17-9.11a24.92,24.92,0,0,1,23.39.11l93,49a7.7,7.7,0,0,0,4.53.9c.51,1.45,1,2.94,1.45,4.38C551.58,300,551.81,300.75,552,301.53Z"/><path class="cls-2" d="M597.29,288.08,552,301.53c-.23-.78-.46-1.52-.74-2.27-.47-1.44-.94-2.93-1.45-4.38-2-5.79-4.1-11.53-6.41-17.16C494.25,156.26,375.13,70.54,236,70.54A330.61,330.61,0,0,0,1.49,167.71l-.12.12a.74.74,0,0,1-.51.2.85.85,0,0,1-.86-.86.9.9,0,0,1,.2-.55l.11-.12A349,349,0,0,1,264.43,46.06C420,46.06,551.85,147.61,597.29,288.08Z"/><path class="cls-3" d="M715.62,326.1v3.52l-79.15-53.15-33.2,9.86C556.5,143,421.67,39.42,262.71,39.42A356.87,356.87,0,0,0,20.65,133.54a1,1,0,0,1-1.8-.78,1,1,0,0,1,.31-.74C93.23,50.91,199.83,0,318.31,0c172.11,0,319.14,107.34,377.8,258.76A400.58,400.58,0,0,1,715.62,326.1Z"/><path class="cls-2" d="M91.58,457.83v13.3q-37.87,0-64.63-15.6T.18,417.92q0-22,26.77-37.62t64.63-15.6V378q-27,0-46.16,11.68T26.3,417.92q0,16.56,19.12,28.23T91.58,457.83Z"/><path class="cls-2" d="M254.07,457.83v13.3q-37.86,0-64.63-15.6t-26.76-37.61q0-22,26.76-37.62t64.63-15.6V378q-27,0-46.15,11.68t-19.13,28.24q0,16.56,19.13,28.23T254.07,457.83Z"/><path class="cls-2" d="M325.17,364.7h26.11V471.13H325.17Z"/><path class="cls-2" d="M487.6,391.31l39.17-26.61h26.11V471.13H526.77V384.65L487.6,411.26l-39.17-26.61v86.48H422.32V364.7h26.11Z"/><path class="cls-2" d="M702.35,384.65v46.57h13v13.3h-13v26.61H676.24V444.52H650.13v26.61H624V444.52H611v-13.3h13V384.65q0-8.23,11.49-14.1t27.68-5.85q16.19,0,27.68,5.85T702.35,384.65Zm-52.22,0v46.57h26.11V384.65c0-1.81-1.29-3.38-3.85-4.69A22.62,22.62,0,0,0,654,380C651.41,381.27,650.13,382.84,650.13,384.65Z"/><path class="cls-4" d="M727.13,447.82a6.62,6.62,0,0,1,4.61,1.35,5.11,5.11,0,0,1,1.78,4.06,4.93,4.93,0,0,1-2.11,4.25,5.05,5.05,0,0,1-2,.78l5.62,7.61h-4.38l-4.82-7.26h-.43v7.26h-3.52V447.82Zm-1.7,8.3h1c.68,0,3.47-.08,3.47-2.73s-2.77-2.71-3.41-2.71h-1.06Z"/><path class="cls-4" d="M727.63,471.14A14.17,14.17,0,1,1,741.79,457,14.19,14.19,0,0,1,727.63,471.14Zm0-26.08A11.91,11.91,0,1,0,739.54,457,11.93,11.93,0,0,0,727.63,445.06Z"/><path class="cls-2" d="M41.28,558.54H14l-8.54,21H.86l27-66,26.59,66h-4.6Zm-1.54-3.84-12-30.34L15.55,554.7Z"/><path class="cls-2" d="M165,528.58a28.36,28.36,0,0,0-21.6-10.08c-16.42,0-28.71,13.15-28.71,29.38,0,19,15.84,28.9,28.8,28.9a29.77,29.77,0,0,0,21.51-9.7v5.57a32.16,32.16,0,0,1-21.31,8,33,33,0,1,1-.2-66A31.2,31.2,0,0,1,165,523Z"/><path class="cls-2" d="M261.06,558.54H233.8l-8.55,21h-4.61l27-66,26.6,66h-4.61Zm-1.53-3.84-12-30.34-12.2,30.34Z"/><path class="cls-2" d="M335.38,579.56v-64h12.68c5.66,0,15.55.87,23.62,8.93,6.81,6.82,9.21,16.13,9.21,23.14s-2.4,16.23-9.21,23c-8.07,8.07-18,8.93-23.62,8.93Zm4.23-3.84H348c16.9,0,28.52-11.52,28.52-28.13,0-16.42-11.72-28.22-28.52-28.22h-8.35Z"/><path class="cls-2" d="M476.62,519.37h-26.5V542.6h25.93v3.84H450.12v29.28h26.5v3.84H445.9v-64h30.72Z"/><path class="cls-2" d="M541,579.56l7.3-66.24L576,572.55l27.75-59.23L611,579.56h-4.22l-5.67-51.46S576.09,581.87,576,581.87L550.84,528.1l-5.66,51.46Z"/><path class="cls-2" d="M689.59,552.2l-21-36.68h4.8l18.44,32.36,18.81-32.36h4.8l-21.6,36.68v27.36h-4.22Z"/></g></g></svg>