<?xml version="1.0" encoding="utf-8"?>
<!-- Generator: Adobe Illustrator 25.2.0, SVG Export Plug-In . SVG Version: 6.00 Build 0)  -->
<svg version="1.1" id="Capa_1" xmlns:svgjs="http://svgjs.com/svgjs"
	 xmlns="http://www.w3.org/2000/svg" xmlns:xlink="http://www.w3.org/1999/xlink" x="0px" y="0px" viewBox="0 0 512 512"
	 style="enable-background:new 0 0 512 512;" xml:space="preserve">
<style type="text/css">
	.st0{fill:#BABCBE;}
</style>
<g>
	<path class="st0" d="M506,181.5c-7.8-12.5-21.5-20-36.8-20H129.7c-16.8,0-32.1,9.5-39,24.2L0.9,373.9C4.3,387.7,17.1,398,32.5,398
		h361.3c15.4,0,29.6-8.7,36.5-22.6l77.6-155.6C514,207.6,513.3,193.2,506,181.5z"/>
	<path class="st0" d="M72.4,156.7c6.9-14.7,22.2-24.2,39-24.2h319.8V91.6c0-16.9-14.2-30.6-31.7-30.6H213c-0.3,0-0.5-0.1-0.5-0.1
		l-33.4-46.7C173.2,5.9,163.4,1,153,1H31.7C14.2,1,0,14.7,0,31.6v276.9L72.4,156.7z"/>
</g>
</svg>
